# xmcd CD database file
#
# Track frame offsets:
#	150
#	16073
#	30779
#	45291
#	56899
#	70049
#	82097
#	95119
#	108270
#	119257
#	132957
#	144994
#	156522
#	172482
#	183882
#	195347
#	209640
#	221753
#	234569
#	247323
#	259723
#	274014
#	284137
#	295124
#	303643
#	318272
#	332715
#	345061
#
# Disc length: 4754 seconds
#
# Revision: 0
# Processed by: cddbd v1.5.1PL2 Copyright (c) Steve Scherf et al.
# Submitted via: CDex 1.51
#
DISCID=a812901c
DTITLE=Nat King Cole - The World Of Nat King Cole
DYEAR=1900
DGENRE=Jazz
TTITLE0=Unforgettable
TTITLE1=Mona Lisa
TTITLE2=Too Young
TTITLE3=L-O-V-E
TTITLE4=(I Love You)For Sentimental Reasons
TTITLE5=Nature Boy
TTITLE6=Smile
TTITLE7=It's Only A Paper Moon
TTITLE8=Straighten Up And Fly Right
TTITLE9=(Get Your Kicks On)Route 66
TTITLE10=Walkin' My Baby Back Home
TTITLE11=Orange Colored Sky
TTITLE12=Fly Me To The Moon
TTITLE13=Send For Me
TTITLE14=A Blossom Fell
TTITLE15=On The Street Where You Live
TTITLE16=Autumn Leaves
TTITLE17=Darling, Je Vous Aime Beaucoup
TTITLE18=Ramblin' Rose
TTITLE19=Let There Be Love
TTITLE20=When I Fall In Love
TTITLE21=Just One Of Those Things
TTITLE22=Let's Face The Music And Dance
TTITLE23=Almost Like Being In Love
TTITLE24=Stardust
TTITLE25=Unforgettable
TTITLE26=Autumn Leaves
TTITLE27=L-O-V-E
EXTD=
EXTT0=
EXTT1=
EXTT2=
EXTT3=
EXTT4=
EXTT5=
EXTT6=
EXTT7=
EXTT8=
EXTT9=
EXTT10=
EXTT11=
EXTT12=
EXTT13=
EXTT14=
EXTT15=
EXTT16=
EXTT17=
EXTT18=
EXTT19=
EXTT20=
EXTT21=
EXTT22=
EXTT23=
EXTT24=
EXTT25=
EXTT26=
EXTT27=
PLAYORDER=
